<?xml version="1.0" encoding="UTF-8"?>
<svg width="131px" height="23px" viewBox="0 0 131 23" version="1.1" xmlns="http://www.w3.org/2000/svg" xmlns:xlink="http://www.w3.org/1999/xlink">
    <title>PaynxtLogo_Negatif</title>
    <g id="Page-1" stroke="none" stroke-width="1" fill="none" fill-rule="evenodd">
        <g id="PaynxtLogo_Negatif" fill-rule="nonzero">
            <path d="M6.915,9.4992 L8.602,9.4992 C9.93,9.4992 10.861,9.2692 11.399,8.8082 C11.936,8.3472 12.204,7.7562 12.204,7.0372 C12.204,6.3382 11.971,5.7452 11.505,5.2592 C11.039,4.7722 10.163,4.5292 8.876,4.5292 L6.915,4.5292 L6.915,9.4992 Z M0,0.0002 L11.444,0.0002 C13.937,0.0002 15.804,0.5932 17.045,1.7782 C18.286,2.9642 18.907,4.6502 18.907,6.8392 C18.907,9.0892 18.23,10.8472 16.878,12.1132 C15.525,13.3802 13.46,14.0132 10.685,14.0132 L6.915,14.0132 L6.915,22.2802 L0,22.2802 L0,0.0002 Z" id="Fill-1" fill="#000940"></path>
            <path d="M31.1377,13.7853 L28.6787,5.7753 L26.2447,13.7853 L31.1377,13.7853 Z M32.5657,18.6023 L24.7497,18.6023 L23.6637,22.2803 L16.6337,22.2803 L25.0087,0.0003 L32.5177,0.0003 L40.8907,22.2803 L33.6807,22.2803 L32.5657,18.6023 Z" id="Fill-3" fill="#000940"></path>
            <polygon id="Fill-5" fill="#000940" points="37.189 0.0002 44.837 0.0002 49.326 7.5172 53.824 0.0002 61.431 0.0002 52.768 12.9492 52.768 22.2802 45.867 22.2802 45.867 12.9492"></polygon>
            <polygon id="Fill-7" fill="#FF6901" points="62.6987 0.0002 69.1277 0.0002 77.5167 12.3272 77.5167 0.0002 84.0067 0.0002 84.0067 22.2802 77.5167 22.2802 69.1737 10.0472 69.1737 22.2802 62.6987 22.2802"></polygon>
            <polygon id="Fill-9" fill="#FF6901" points="86.0659 0.0002 93.6499 0.0002 97.5939 6.8542 101.4309 0.0002 108.9389 0.0002 102.0039 10.7912 109.5929 22.2802 101.8569 22.2802 97.4569 15.1222 93.0569 22.2802 85.3669 22.2802 93.0519 10.6692"></polygon>
            <polygon id="Fill-11" fill="#FF6901" points="109.2349 0.0002 130.1629 0.0002 130.1629 5.5022 123.1419 5.5022 123.1419 22.2802 116.2569 22.2802 116.2569 5.5022 109.2349 5.5022"></polygon>
        </g>
    </g>
</svg>